# Blender v2.80 (sub 75) OBJ File: 'coffe_table.blend'
# www.blender.org
mtllib coffe_table.mtl
o Coffe_Table_Cube
v 0.250000 0.408369 -0.489728
v 0.250000 0.266383 -0.510409
v 0.250000 0.414267 0.512561
v 0.250000 0.265543 0.512038
v -0.250000 0.408369 -0.489728
v -0.250000 0.266383 -0.510409
v -0.250000 0.414267 0.512561
v -0.250000 0.265543 0.512038
v 0.250000 0.393442 -0.523189
v 0.250000 0.354939 -0.542447
v 0.250000 0.314869 -0.540742
v 0.250057 0.287106 -0.527741
v -0.250000 0.279447 0.539148
v -0.250000 0.315977 0.566694
v -0.250000 0.363099 0.565002
v -0.250000 0.402764 0.538431
v 0.250000 0.402764 0.538431
v 0.250000 0.363099 0.565002
v 0.250000 0.315977 0.566694
v 0.250000 0.279447 0.539148
v -0.250000 0.393442 -0.523189
v -0.250000 0.354939 -0.542447
v -0.250000 0.314869 -0.540742
v -0.249943 0.287106 -0.527741
v -0.250000 0.249966 -0.520000
v -0.250000 0.249083 0.519433
v 0.250057 0.280865 -0.553207
v 0.250000 0.249966 -0.520000
v -0.250000 0.409865 0.563177
v -0.250000 0.430849 0.517666
v 0.250000 0.272716 0.563873
v 0.250000 0.249083 0.520000
v -0.249943 0.280865 -0.553207
v 0.250000 0.424666 -0.495584
v 0.250000 0.430849 0.517666
v -0.250000 0.424666 -0.495584
v 0.250000 0.400149 -0.548581
v 0.250000 0.356199 -0.569781
v 0.250000 0.313133 -0.568014
v -0.250000 0.272716 0.563873
v -0.250000 0.314016 0.593905
v -0.250000 0.365032 0.592138
v 0.250000 0.409865 0.563177
v 0.250000 0.365032 0.592138
v 0.250000 0.314016 0.593905
v -0.250000 0.400149 -0.548581
v -0.250000 0.356199 -0.569781
v -0.250000 0.313133 -0.568014
v -0.200000 0.249966 -0.520000
v -0.200000 0.249083 0.520000
v 0.200000 0.249083 0.520000
v 0.200000 0.249966 -0.520000
v -0.250000 0.249524 -0.470000
v -0.200000 0.249524 -0.470000
v -0.250000 0.249414 -0.380000
v -0.250000 0.249303 0.380000
v -0.250000 0.249193 0.470000
v -0.200000 0.249414 -0.380000
v -0.200000 0.249303 0.380000
v -0.200000 0.249193 0.470000
v 0.250000 0.249524 -0.470000
v 0.200000 0.249524 -0.470000
v 0.200000 0.249414 -0.380000
v 0.200000 0.249303 0.380000
v 0.200000 0.249193 0.470000
v 0.250000 0.249193 0.470000
v 0.250000 0.249303 0.380000
v 0.250000 0.249414 -0.380000
v -0.200000 0.239524 -0.470035
v -0.250000 0.239524 -0.470035
v -0.250000 0.239414 -0.380035
v -0.250000 0.239303 0.379965
v -0.250000 0.239193 0.469965
v -0.200000 0.239414 -0.380035
v -0.200000 0.239303 0.379965
v -0.200000 0.239193 0.469965
v 0.250000 0.239414 -0.380035
v 0.250000 0.239524 -0.470035
v 0.200000 0.239524 -0.470035
v 0.200000 0.239414 -0.380035
v 0.200000 0.239303 0.379965
v 0.200000 0.239193 0.469965
v 0.250000 0.239193 0.469965
v 0.250000 0.239303 0.379965
v -0.225000 0.239524 -0.470035
v -0.250000 0.239469 -0.425035
v -0.250000 0.239248 0.424965
v -0.200000 0.239469 -0.425035
v -0.200000 0.239248 0.424965
v -0.225000 0.239414 -0.380035
v -0.225000 0.239303 0.379965
v -0.225000 0.239193 0.469965
v 0.250000 0.239469 -0.425035
v 0.225000 0.239524 -0.470035
v 0.200000 0.239469 -0.425035
v 0.200000 0.239248 0.424965
v 0.250000 0.239248 0.424965
v 0.225000 0.239414 -0.380035
v 0.225000 0.239303 0.379965
v 0.225000 0.239193 0.469965
v 0.225000 0.239214 0.443858
v 0.209498 0.239248 0.424965
v 0.225000 0.239282 0.406072
v 0.240502 0.239248 0.424965
v 0.217744 0.239220 0.440368
v 0.232256 0.239220 0.440368
v 0.212280 0.239264 0.416257
v 0.212280 0.239232 0.433673
v 0.232256 0.239276 0.409562
v 0.217744 0.239276 0.409562
v 0.237720 0.239232 0.433673
v 0.237720 0.239264 0.416257
v 0.225000 0.239435 -0.406142
v 0.209498 0.239469 -0.425035
v 0.225000 0.239503 -0.443928
v 0.240502 0.239469 -0.425035
v 0.217744 0.239441 -0.409632
v 0.232256 0.239441 -0.409632
v 0.212280 0.239485 -0.433743
v 0.212280 0.239453 -0.416327
v 0.232256 0.239497 -0.440438
v 0.217744 0.239497 -0.440438
v 0.237720 0.239453 -0.416327
v 0.237720 0.239485 -0.433743
v -0.225000 0.239214 0.443858
v -0.240502 0.239248 0.424965
v -0.225000 0.239282 0.406072
v -0.209498 0.239248 0.424965
v -0.232256 0.239220 0.440368
v -0.217744 0.239220 0.440368
v -0.237720 0.239264 0.416257
v -0.237720 0.239232 0.433673
v -0.217744 0.239276 0.409562
v -0.232256 0.239276 0.409562
v -0.212280 0.239232 0.433673
v -0.212280 0.239264 0.416257
v -0.225000 0.239435 -0.406142
v -0.240502 0.239469 -0.425035
v -0.225000 0.239503 -0.443928
v -0.209498 0.239469 -0.425035
v -0.232256 0.239441 -0.409632
v -0.217744 0.239441 -0.409632
v -0.237720 0.239485 -0.433743
v -0.237720 0.239453 -0.416327
v -0.217744 0.239497 -0.440438
v -0.232256 0.239497 -0.440438
v -0.212280 0.239453 -0.416327
v -0.212280 0.239485 -0.433743
v 0.225000 -0.000068 0.460171
v 0.216655 -0.000034 0.450000
v 0.225000 0.000000 0.439829
v 0.233345 -0.000034 0.450000
v 0.221094 -0.000062 0.458292
v 0.228906 -0.000062 0.458292
v 0.218152 -0.000018 0.445312
v 0.218152 -0.000050 0.454688
v 0.228906 -0.000006 0.441708
v 0.221094 -0.000006 0.441708
v 0.231847 -0.000050 0.454688
v 0.231847 -0.000018 0.445312
v 0.225000 -0.000068 -0.439829
v 0.216655 -0.000034 -0.450000
v 0.225000 0.000000 -0.460171
v 0.233345 -0.000034 -0.450000
v 0.221094 -0.000062 -0.441708
v 0.228906 -0.000062 -0.441708
v 0.218152 -0.000018 -0.454688
v 0.218152 -0.000050 -0.445312
v 0.228906 -0.000006 -0.458292
v 0.221094 -0.000006 -0.458292
v 0.231848 -0.000050 -0.445312
v 0.231848 -0.000018 -0.454688
v -0.225000 -0.000068 0.460171
v -0.233345 -0.000034 0.450000
v -0.225000 0.000000 0.439829
v -0.216655 -0.000034 0.450000
v -0.228906 -0.000062 0.458292
v -0.221094 -0.000062 0.458292
v -0.231848 -0.000018 0.445312
v -0.231848 -0.000050 0.454688
v -0.221094 -0.000006 0.441708
v -0.228906 -0.000006 0.441708
v -0.218152 -0.000050 0.454688
v -0.218152 -0.000018 0.445312
v -0.225000 -0.000068 -0.439829
v -0.233345 -0.000034 -0.450000
v -0.225000 0.000000 -0.460171
v -0.216655 -0.000034 -0.450000
v -0.228906 -0.000062 -0.441708
v -0.221094 -0.000062 -0.441708
v -0.231848 -0.000018 -0.454688
v -0.231848 -0.000050 -0.445312
v -0.221094 -0.000006 -0.458292
v -0.228906 -0.000006 -0.458292
v -0.218152 -0.000050 -0.445312
v -0.218152 -0.000018 -0.454688
vt 0.375000 0.000000
vt 0.625000 0.000000
vt 0.625000 0.250000
vt 0.375000 0.250000
vt 0.575000 0.250000
vt 0.625000 0.250000
vt 0.625000 0.500000
vt 0.575000 0.500000
vt 0.562500 0.968750
vt 0.625000 0.968750
vt 0.625000 1.000000
vt 0.562500 1.000000
vt 0.825000 0.500000
vt 0.875000 0.500000
vt 0.875000 0.750000
vt 0.825000 0.750000
vt 0.625000 0.500000
vt 0.675000 0.500000
vt 0.675000 0.750000
vt 0.625000 0.750000
vt 0.625000 0.687500
vt 0.625000 0.625000
vt 0.725000 0.500000
vt 0.725000 0.750000
vt 0.775000 0.500000
vt 0.775000 0.750000
vt 0.175900 0.507798
vt 0.224936 0.507960
vt 0.474936 0.742040
vt 0.425900 0.742202
vt 0.152899 0.509531
vt 0.175900 0.507798
vt 0.425900 0.742202
vt 0.402899 0.740469
vt 0.375000 0.250000
vt 0.425000 0.250000
vt 0.425000 0.500000
vt 0.375000 0.500000
vt 0.375000 0.375000
vt 0.375000 0.312500
vt 0.475000 0.250000
vt 0.475000 0.500000
vt 0.525000 0.250000
vt 0.525000 0.500000
vt 0.401985 0.509616
vt 0.402899 0.740469
vt 0.375000 0.750000
vt 0.375000 0.625000
vt 0.375000 0.593750
vt 0.375000 0.562500
vt 0.375000 0.531250
vt 0.175900 0.507798
vt 0.152899 0.509531
vt 0.125000 0.500000
vt 0.175000 0.500000
vt 0.597011 0.509431
vt 0.575180 0.507547
vt 0.151985 0.740384
vt 0.176627 0.742190
vt 0.175000 0.750000
vt 0.125000 0.750000
vt 0.425900 0.742202
vt 0.425000 0.750000
vt 0.347011 0.740568
vt 0.348285 0.509635
vt 0.375000 0.500000
vt 0.375000 0.750000
vt 0.598285 0.740365
vt 0.625000 0.750000
vt 0.125000 0.718750
vt 0.125000 0.687500
vt 0.125000 0.656250
vt 0.125000 0.625000
vt 0.322401 0.507319
vt 0.325000 0.500000
vt 0.273521 0.507896
vt 0.275000 0.500000
vt 0.224936 0.507960
vt 0.225000 0.500000
vt 0.426627 0.507810
vt 0.474383 0.507597
vt 0.525161 0.507756
vt 0.325180 0.742453
vt 0.325000 0.750000
vt 0.275161 0.742244
vt 0.275000 0.750000
vt 0.224383 0.742403
vt 0.225000 0.750000
vt 0.572401 0.742681
vt 0.575000 0.750000
vt 0.523521 0.742104
vt 0.525000 0.750000
vt 0.474936 0.742040
vt 0.475000 0.750000
vt 0.224936 0.507960
vt 0.273521 0.507896
vt 0.523521 0.742104
vt 0.474936 0.742040
vt 0.273521 0.507896
vt 0.322401 0.507319
vt 0.572401 0.742681
vt 0.523521 0.742104
vt 0.322401 0.507319
vt 0.348285 0.509635
vt 0.598285 0.740365
vt 0.572401 0.742681
vt 0.348285 0.509635
vt 0.347011 0.740568
vt 0.597011 0.509431
vt 0.598285 0.740365
vt 0.347011 0.740568
vt 0.325180 0.742453
vt 0.575180 0.507547
vt 0.597011 0.509431
vt 0.325180 0.742453
vt 0.275161 0.742244
vt 0.525161 0.507756
vt 0.575180 0.507547
vt 0.275161 0.742244
vt 0.224383 0.742403
vt 0.474383 0.507597
vt 0.525161 0.507756
vt 0.224383 0.742403
vt 0.176627 0.742190
vt 0.426627 0.507810
vt 0.474383 0.507597
vt 0.176627 0.742190
vt 0.151985 0.740384
vt 0.401985 0.509616
vt 0.426627 0.507810
vt 0.151985 0.740384
vt 0.152899 0.509531
vt 0.402899 0.740469
vt 0.401985 0.509616
vt 0.375000 0.968750
vt 0.500000 0.968750
vt 0.500000 1.000000
vt 0.375000 1.000000
vt 0.500000 0.750000
vt 0.562500 0.750000
vt 0.562500 0.875000
vt 0.562500 0.906250
vt 0.562500 0.937500
vt 0.500000 0.937500
vt 0.500000 0.906250
vt 0.500000 0.875000
vt 0.375000 0.875000
vt 0.375000 0.906250
vt 0.375000 0.937500
vt 0.625000 0.875000
vt 0.625000 0.906250
vt 0.625000 0.937500
vt 0.488757 0.960322
vt 0.466739 0.965855
vt 0.466739 0.965855
vt 0.488757 0.960322
vt 0.619378 0.883428
vt 0.624984 0.890625
vt 0.624984 0.890625
vt 0.619378 0.883428
vt 0.608370 0.940395
vt 0.619378 0.945928
vt 0.619378 0.945928
vt 0.608370 0.940395
vt 0.375031 0.953125
vt 0.386243 0.945928
vt 0.386243 0.945928
vt 0.375031 0.953125
vt 0.386243 0.883428
vt 0.408261 0.877895
vt 0.408261 0.877895
vt 0.386243 0.883428
vt 0.386243 0.960322
vt 0.386243 0.960322
vt 0.579130 0.903355
vt 0.568122 0.897822
vt 0.568122 0.897822
vt 0.579130 0.903355
vt 0.593750 0.968740
vt 0.579131 0.965855
vt 0.579131 0.965855
vt 0.593750 0.968740
vt 0.499969 0.953125
vt 0.499969 0.953125
vt 0.593750 0.937510
vt 0.593750 0.937510
vt 0.488757 0.897822
vt 0.466739 0.903355
vt 0.466739 0.903355
vt 0.488757 0.897822
vt 0.608370 0.965855
vt 0.608370 0.965855
vt 0.488757 0.945928
vt 0.488757 0.945928
vt 0.608370 0.877895
vt 0.608370 0.877895
vt 0.579131 0.940395
vt 0.579131 0.940395
vt 0.375031 0.890625
vt 0.375031 0.890625
vt 0.386243 0.897822
vt 0.386243 0.897822
vt 0.408261 0.965855
vt 0.408261 0.965855
vt 0.593750 0.906240
vt 0.593750 0.906240
vt 0.499969 0.890625
vt 0.499969 0.890625
vt 0.593750 0.875010
vt 0.593750 0.875010
vt 0.608369 0.903355
vt 0.608369 0.903355
vt 0.488757 0.883428
vt 0.488757 0.883428
vt 0.466739 0.940395
vt 0.466739 0.940395
vt 0.579130 0.877895
vt 0.579130 0.877895
vt 0.568122 0.945928
vt 0.568122 0.945928
vt 0.408261 0.903355
vt 0.408261 0.903355
vt 0.437500 0.968740
vt 0.437500 0.968740
vt 0.619378 0.960322
vt 0.619378 0.960322
vt 0.437500 0.937510
vt 0.437500 0.937510
vt 0.562516 0.953125
vt 0.562516 0.953125
vt 0.466739 0.877895
vt 0.466739 0.877895
vt 0.408261 0.940395
vt 0.408261 0.940395
vt 0.568122 0.883428
vt 0.568122 0.883428
vt 0.568122 0.960322
vt 0.568122 0.960322
vt 0.624984 0.953125
vt 0.562516 0.890625
vt 0.619378 0.897822
vt 0.437500 0.875010
vt 0.437500 0.906240
vt 0.619378 0.897822
vt 0.562516 0.890625
vt 0.437500 0.875010
vt 0.437500 0.906240
vt 0.624984 0.953125
vt 0.625000 0.875000
vt 0.593750 0.875000
vt 0.562500 0.875000
vt 0.562500 0.906250
vt 0.593750 0.906250
vt 0.625000 0.906250
vt 0.500000 0.906250
vt 0.500000 0.890625
vt 0.500000 0.875000
vt 0.375000 0.562500
vt 0.375000 0.546875
vt 0.375000 0.531250
vt 0.375000 0.890625
vt 0.437500 0.906250
vt 0.375000 0.906250
vt 0.375000 0.953125
vt 0.437500 0.968750
vt 0.375000 0.968750
vt 0.562500 0.890625
vt 0.625000 0.937500
vt 0.593750 0.937500
vt 0.562500 0.937500
vt 0.500000 0.968750
vt 0.500000 0.953125
vt 0.500000 0.937500
vt 0.562500 0.968750
vt 0.593750 0.968750
vt 0.625000 0.968750
vt 0.437500 0.875000
vt 0.375000 0.875000
vt 0.562500 0.953125
vt 0.437500 0.937500
vt 0.375000 0.937500
vt 0.375000 0.625000
vt 0.375000 0.609375
vt 0.375000 0.593750
vt 0.125000 0.718750
vt 0.125000 0.703125
vt 0.125000 0.687500
vt 0.125000 0.656250
vt 0.125000 0.640625
vt 0.125000 0.625000
vt 0.625000 0.953125
vt 0.625000 0.890625
vn 0.0000 1.0000 -0.0061
vn 0.0000 0.9081 0.4187
vn 0.0000 -1.0000 -0.0022
vn 0.0000 0.9076 -0.4199
vn 0.0000 -0.7321 -0.6812
vn 0.0000 -0.4171 -0.9089
vn 0.0000 -0.0410 -0.9992
vn 0.0000 0.4345 -0.9007
vn 0.0000 0.4241 0.9056
vn 0.0000 0.6415 0.7671
vn -0.0003 -0.8805 0.4740
vn 0.0000 -0.5881 0.8088
vn 0.0000 0.0346 0.9994
vn 0.0000 0.5426 0.8400
vn -1.0000 -0.0000 0.0000
vn 1.0000 -0.0013 0.0009
vn 1.0000 0.0000 0.0000
vn -1.0000 0.0014 -0.0009
vn 1.0000 0.0018 -0.0003
vn -1.0000 -0.0018 0.0003
vn 0.0000 0.0425 0.9991
vn 0.0000 -0.4473 0.8944
vn 0.0000 -0.9132 0.4074
vn 0.0000 -1.0000 0.0059
vn 0.0000 -0.9137 -0.4063
vn 0.0000 -0.5565 -0.8308
vn 0.0000 -0.0359 -0.9994
vn 0.0000 0.6021 -0.7984
vn 0.0000 0.8898 -0.4563
vn -0.0000 1.0000 0.0008
vn -0.0000 -1.0000 -0.0008
vn 0.0000 -1.0000 -0.0088
vn 0.0000 -1.0000 -0.0001
vn 0.7742 0.0365 0.6319
vn 0.9526 0.0033 -0.3044
vn 0.7711 -0.0954 -0.6295
vn -0.9508 -0.0602 -0.3039
vn -0.7743 0.0363 -0.6318
vn -0.9526 0.0034 0.3044
vn -0.7714 -0.0951 0.6293
vn -0.4326 0.0613 0.8995
vn 0.9525 0.0034 0.3044
vn 0.4299 -0.1261 -0.8940
vn 0.7714 -0.0951 0.6293
vn 0.4326 0.0613 0.8995
vn 0.9508 -0.0602 -0.3039
vn 0.7743 0.0363 -0.6318
vn -0.4299 -0.1261 -0.8940
vn -0.9526 0.0033 -0.3043
vn -0.9509 -0.0601 0.3037
vn -0.7742 0.0365 0.6319
vn -0.4302 -0.1257 0.8939
vn 0.9509 -0.0601 0.3037
vn 0.4327 0.0610 -0.8994
vn 0.4302 -0.1257 0.8940
vn 0.9526 0.0033 -0.3043
vn -0.4327 0.0610 -0.8995
vn -0.7711 -0.0954 -0.6295
vn 0.0000 -1.0000 -0.0034
vn 0.4327 0.0610 -0.8995
vn -0.4302 -0.1257 0.8940
vn 0.9526 0.0034 0.3044
vn 0.0000 0.0035 -1.0000
vn -0.0000 -0.0035 1.0000
vn -0.0003 -1.0000 -0.0011
vn 0.0003 -1.0000 -0.0011
usemtl Coffe_Table_Wood
s off
f 34/1/1 36/2/1 30/3/1 35/4/1
f 43/5/2 35/6/2 30/7/2 29/8/2
f 65/9/3 66/10/3 32/11/3 51/12/3
f 46/13/4 36/14/4 34/15/4 37/16/4
f 25/17/5 33/18/5 27/19/5 28/20/5 52/21/5 49/22/5
f 33/18/6 48/23/6 39/24/6 27/19/6
f 48/23/7 47/25/7 38/26/7 39/24/7
f 47/25/8 46/13/8 37/16/8 38/26/8
f 24/27/9 12/28/9 11/29/9 23/30/9
f 6/31/10 2/32/10 12/33/10 24/34/10
f 32/35/11 31/36/11 40/37/11 26/38/11 50/39/11 51/40/11
f 31/36/12 45/41/12 41/42/12 40/37/12
f 45/41/13 44/43/13 42/44/13 41/42/13
f 44/43/14 43/5/14 29/8/14 42/44/14
f 8/45/15 6/46/15 25/47/15 53/48/15 55/49/15 56/50/15 57/51/15 26/38/15
f 12/52/16 2/53/16 28/54/16 27/55/16
f 7/56/15 16/57/15 29/8/15 30/7/15
f 4/58/17 20/59/17 31/60/17 32/61/17
f 6/46/18 24/62/18 33/63/18 25/47/18
f 3/64/17 1/65/17 34/66/17 35/67/17
f 5/68/15 7/56/15 30/7/15 36/69/15
f 2/53/17 4/58/17 32/61/17 66/70/17 67/71/17 68/72/17 61/73/17 28/54/17
f 1/65/17 9/74/17 37/75/17 34/66/17
f 9/74/17 10/76/17 38/77/17 37/75/17
f 10/76/17 11/78/17 39/79/17 38/77/17
f 11/78/19 12/52/19 27/55/19 39/79/19
f 13/80/15 8/45/15 26/38/15 40/37/15
f 14/81/15 13/80/15 40/37/15 41/42/15
f 15/82/15 14/81/15 41/42/15 42/44/15
f 16/57/15 15/82/15 42/44/15 29/8/15
f 17/83/17 3/64/17 35/67/17 43/84/17
f 18/85/17 17/83/17 43/84/17 44/86/17
f 19/87/17 18/85/17 44/86/17 45/88/17
f 20/59/17 19/87/17 45/88/17 31/60/17
f 21/89/15 5/68/15 36/69/15 46/90/15
f 22/91/15 21/89/15 46/90/15 47/92/15
f 23/93/15 22/91/15 47/92/15 48/94/15
f 24/62/20 23/93/20 48/94/20 33/63/20
f 23/95/21 11/96/21 10/97/21 22/98/21
f 22/99/22 10/100/22 9/101/22 21/102/22
f 21/103/23 9/104/23 1/105/23 5/106/23
f 5/107/24 1/108/24 3/109/24 7/110/24
f 7/111/25 3/112/25 17/113/25 16/114/25
f 16/115/26 17/116/26 18/117/26 15/118/26
f 15/119/27 18/120/27 19/121/27 14/122/27
f 14/123/28 19/124/28 20/125/28 13/126/28
f 13/127/29 20/128/29 4/129/29 8/130/29
f 8/131/30 4/132/30 2/133/30 6/134/30
f 57/135/3 60/136/3 50/137/3 26/138/3
f 49/139/31 52/140/31 62/141/31 63/142/31 64/143/31 65/9/31 51/12/31 50/137/31 60/136/31 59/144/31 58/145/31 54/146/31
f 25/47/32 49/139/32 54/146/32 53/147/32
f 55/148/33 58/145/33 59/144/33 56/149/33
f 52/140/32 28/20/32 61/150/32 62/141/32
f 63/142/33 68/151/33 67/152/33 64/143/33
usemtl Material.001
f 135/153/34 130/154/34 178/155/34 183/156/34
f 124/157/35 116/158/35 164/159/35 172/160/35
f 109/161/36 112/162/36 160/163/36 157/164/36
f 126/165/37 131/166/37 179/167/37 174/168/37
f 143/169/38 146/170/38 194/171/38 191/172/38
f 132/173/39 126/165/39 174/168/39 180/174/39
f 117/175/40 120/176/40 168/177/40 165/178/40
f 101/179/41 105/180/41 153/181/41 149/182/41
f 128/183/42 135/153/42 183/156/42 176/184/42
f 103/185/43 109/161/43 157/164/43 151/186/43
f 147/187/44 142/188/44 190/189/44 195/190/44
f 106/191/45 101/179/45 149/182/45 154/192/45
f 136/193/46 128/183/46 176/184/46 184/194/46
f 121/195/47 124/157/47 172/160/47 169/196/47
f 110/197/48 103/185/48 151/186/48 158/198/48
f 138/199/49 143/169/49 191/172/49 186/200/49
f 144/201/50 138/199/50 186/200/50 192/202/50
f 129/203/51 132/173/51 180/174/51 177/204/51
f 113/205/52 117/175/52 165/178/52 161/206/52
f 140/207/53 147/187/53 195/190/53 188/208/53
f 115/209/54 121/195/54 169/196/54 163/210/54
f 118/211/55 113/205/55 161/206/55 166/212/55
f 148/213/56 140/207/56 188/208/56 196/214/56
f 133/215/36 136/193/36 184/194/36 181/216/36
f 122/217/57 115/209/57 163/210/57 170/218/57
f 107/219/58 110/197/58 158/198/58 155/220/58
f 141/221/40 144/201/40 192/202/40 189/222/40
f 125/223/41 129/203/41 177/204/41 173/224/41
f 111/225/34 106/191/34 154/192/34 159/226/34
f 127/227/43 133/215/43 181/216/43 175/228/43
f 102/229/37 107/219/37 155/220/37 150/230/37
f 130/154/45 125/223/45 173/224/45 178/155/45
f 145/231/47 148/213/47 196/214/47 193/232/47
f 134/233/48 127/227/48 175/228/48 182/234/48
f 119/235/38 122/217/38 170/218/38 167/236/38
f 108/237/39 102/229/39 150/230/39 156/238/39
f 153/181/59 156/238/59 150/230/59 155/220/59 158/198/59 151/186/59 157/164/59 160/163/59 152/239/59 159/226/59 154/192/59 149/182/59
f 165/178/59 168/177/59 162/240/59 167/236/59 170/218/59 163/210/59 169/196/59 172/160/59 164/159/59 171/241/59 166/212/59 161/206/59
f 177/204/59 180/174/59 174/168/59 179/167/59 182/234/59 175/228/59 181/216/59 184/194/59 176/184/59 183/156/59 178/155/59 173/224/59
f 189/222/59 192/202/59 186/200/59 191/172/59 194/171/59 187/242/59 193/232/59 196/214/59 188/208/59 195/190/59 190/189/59 185/243/59
f 116/158/53 123/244/53 171/241/53 164/159/53
f 105/180/51 108/237/51 156/238/51 153/181/51
f 120/176/50 114/245/50 162/240/50 168/177/50
f 131/166/58 134/233/58 182/234/58 179/167/58
f 146/170/57 139/246/57 187/242/57 194/171/57
f 142/188/55 137/247/55 185/243/55 190/189/55
f 114/245/49 119/235/49 167/236/49 162/240/49
f 139/246/60 145/231/60 193/232/60 187/242/60
f 112/162/46 104/248/46 152/239/46 160/163/46
f 123/244/44 118/211/44 166/212/44 171/241/44
f 137/247/61 141/221/61 189/222/61 185/243/61
f 104/248/62 111/225/62 159/226/62 152/239/62
usemtl Material
f 62/141/63 61/150/63 78/249/63 94/250/63 79/251/63
f 68/151/64 63/142/64 80/252/64 98/253/64 77/254/64
f 54/146/17 58/145/17 74/255/17 88/256/17 69/257/17
f 57/51/15 56/50/15 72/258/15 87/259/15 73/260/15
f 86/261/65 138/199/65 144/201/65 141/221/65 137/247/65 90/262/65 71/263/65
f 87/264/65 126/165/65 132/173/65 129/203/65 125/223/65 92/265/65 73/266/65
f 95/267/65 114/245/65 120/176/65 117/175/65 113/205/65 98/253/65 80/252/65
f 64/143/63 67/152/63 84/268/63 99/269/63 81/270/63
f 63/142/15 62/141/15 79/251/15 95/267/15 80/252/15
f 59/144/17 60/136/17 76/271/17 89/272/17 75/273/17
f 66/10/64 65/9/64 82/274/64 100/275/64 83/276/64
f 58/145/64 55/148/64 71/263/64 90/262/64 74/255/64
f 53/147/63 54/146/63 69/257/63 85/277/63 70/278/63
f 65/9/15 64/143/15 81/270/15 96/279/15 82/274/15
f 56/149/63 59/144/63 75/273/63 91/280/63 72/281/63
f 55/49/15 53/48/15 70/282/15 86/283/15 71/284/15
f 60/136/64 57/135/64 73/266/64 92/265/64 76/271/64
f 67/71/17 66/70/17 83/285/17 97/286/17 84/287/17
f 61/73/17 68/72/17 77/288/17 93/289/17 78/290/17
f 99/269/65 84/268/65 97/291/65 104/248/65 112/162/65 109/161/65 103/185/65
f 101/179/66 106/191/66 111/225/66 104/248/66 97/291/66 83/276/66 100/275/66
f 81/270/66 99/269/66 103/185/66 110/197/66 107/219/66 102/229/66 96/279/66
f 94/250/65 78/249/65 93/292/65 116/158/65 124/157/65 121/195/65 115/209/65
f 113/205/66 118/211/66 123/244/66 116/158/66 93/292/66 77/254/66 98/253/66
f 79/251/66 94/250/66 115/209/66 122/217/66 119/235/66 114/245/66 95/267/66
f 91/280/65 75/273/65 89/272/65 128/183/65 136/193/65 133/215/65 127/227/65
f 125/223/66 130/154/66 135/153/66 128/183/66 89/272/66 76/271/66 92/265/66
f 72/281/66 91/280/66 127/227/66 134/233/66 131/166/66 126/165/66 87/264/66
f 85/277/65 69/257/65 88/256/65 140/207/65 148/213/65 145/231/65 139/246/65
f 137/247/66 142/188/66 147/187/66 140/207/66 88/256/66 74/255/66 90/262/66
f 70/278/66 85/277/66 139/246/66 146/170/66 143/169/66 138/199/66 86/261/66
f 96/279/65 102/229/65 108/237/65 105/180/65 101/179/65 100/275/65 82/274/65
