# Blender v2.80 (sub 75) OBJ File: 'Door.blend'
# www.blender.org
mtllib Door.mtl
o Door_Cube
v 0.459000 2.020000 -0.020000
v 0.459000 0.000000 -0.020000
v 0.459000 2.020000 0.020000
v 0.459000 0.000000 0.020000
v -0.459000 2.020000 -0.020000
v -0.459000 0.000000 -0.020000
v -0.459000 2.020000 0.020000
v -0.459000 0.000000 0.020000
v 0.459000 0.000000 -0.030000
v -0.459000 0.000000 -0.030000
v 0.459000 2.020000 -0.030000
v -0.459000 2.020000 -0.030000
v 0.468180 -0.009090 -0.020000
v -0.468180 -0.009090 -0.020000
v 0.468180 2.029090 -0.020000
v -0.468180 2.029090 -0.020000
v 0.468180 -0.009090 -0.030000
v -0.468180 -0.009090 -0.030000
v 0.468180 2.029090 -0.030000
v -0.468180 2.029090 -0.030000
v 0.459000 1.866312 -0.020000
v -0.459000 1.866312 0.020000
v 0.459000 1.866312 0.020000
v -0.459000 1.866312 -0.020000
v 0.459000 1.866312 -0.030000
v -0.459000 1.866312 -0.030000
v 0.468180 1.873970 -0.020000
v -0.468180 1.873970 -0.020000
v 0.468180 1.873970 -0.030000
v -0.468180 1.873970 -0.030000
v 0.459000 0.153544 -0.020000
v 0.459000 0.153544 0.020000
v -0.459000 0.153544 -0.020000
v 0.459000 0.153544 -0.030000
v -0.459000 0.153544 -0.030000
v 0.468180 0.146390 -0.020000
v -0.468180 0.146390 -0.020000
v 0.468180 0.146390 -0.030000
v -0.468180 0.146390 -0.030000
v -0.459000 0.153544 0.020000
v 0.321687 1.838200 -0.010000
v 0.321635 1.838200 0.000000
v 0.321605 0.181800 0.000000
v 0.321605 0.181800 -0.010000
v -0.321605 1.838200 0.000000
v -0.321635 0.181800 0.000000
v -0.321553 1.838200 -0.010000
v -0.321635 0.181800 -0.010000
v 0.321605 0.424200 0.000000
v 0.321605 0.424200 -0.010000
v -0.321635 0.626200 -0.010000
v -0.321635 0.626200 0.000000
v 0.177013 0.424200 0.000000
v 0.177013 0.424200 -0.010000
v -0.180343 0.626200 0.000000
v -0.180343 0.626200 -0.010000
v 0.321635 1.393800 0.000000
v 0.321687 1.393800 -0.010000
v -0.321553 1.595800 -0.010000
v -0.321605 1.595800 0.000000
v -0.177013 1.595800 0.000000
v 0.180446 1.393800 -0.010000
v 0.180343 1.393800 0.000000
v -0.165742 1.595800 -0.010000
v 0.321620 0.685800 0.000000
v 0.321620 0.685800 -0.010000
v -0.321620 0.887800 -0.010000
v -0.321620 0.887800 0.000000
v -0.321620 1.334200 0.000000
v 0.321620 1.132200 0.000000
v 0.180327 0.685800 -0.010000
v -0.177028 0.887800 0.000000
v -0.177028 0.887800 -0.010000
v 0.180327 0.685800 0.000000
v 0.177028 1.132200 0.000000
v -0.180327 1.334200 0.000000
v 0.321620 1.132200 -0.010000
v -0.321620 1.334200 -0.010000
v -0.180327 1.334200 -0.010000
v 0.177028 1.132200 -0.010000
v -0.344250 1.868500 -0.030000
v 0.344250 1.868500 -0.030000
v -0.344250 0.151500 -0.030000
v 0.344250 0.151500 -0.030000
v 0.344250 0.454500 0.020000
v 0.344250 0.151500 0.020000
v 0.344250 0.454500 -0.030000
v 0.344250 1.868500 0.020000
v -0.344250 1.868500 0.020000
v -0.344250 0.151500 0.020000
v -0.344250 0.656500 -0.030000
v -0.344250 0.656500 0.020000
v -0.183600 0.656500 0.020000
v 0.183600 0.454500 -0.030000
v 0.183600 0.454500 0.020000
v -0.183600 0.656500 -0.030000
v 0.344250 1.363500 0.020000
v 0.344250 1.363500 -0.030000
v -0.344250 1.565500 -0.030000
v -0.344250 1.565500 0.020000
v -0.183600 1.565500 0.020000
v 0.183600 1.363500 -0.030000
v 0.183600 1.363500 0.020000
v -0.172125 1.565500 -0.030000
v 0.344250 1.162500 0.020000
v 0.344250 0.655500 0.020000
v 0.344250 1.162500 -0.030000
v 0.344250 0.655500 -0.030000
v 0.183600 0.655500 -0.030000
v -0.183600 0.857500 0.020000
v -0.183600 0.857500 -0.030000
v 0.183600 0.655500 0.020000
v -0.183600 1.364500 0.020000
v 0.183600 1.162500 0.020000
v 0.183600 1.162500 -0.030000
v -0.183600 1.364500 -0.030000
v -0.344250 1.364500 -0.030000
v -0.344250 0.857500 -0.030000
v -0.459000 1.363500 -0.030000
v -0.459000 0.858500 -0.030000
v -0.391860 1.069163 -0.030154
v -0.395041 1.076134 -0.030154
v -0.384796 1.085799 -0.029692
v -0.391853 1.063425 -0.030154
v -0.384796 1.047723 -0.029692
v -0.395034 1.056453 -0.030154
v -0.411399 1.063595 -0.030154
v -0.408218 1.056568 -0.030154
v -0.418454 1.048016 -0.029692
v -0.411399 1.068992 -0.030154
v -0.418454 1.085505 -0.029692
v -0.408218 1.076020 -0.030154
v -0.411399 1.068992 -0.074600
v -0.408218 1.076020 -0.074600
v -0.408218 1.056568 -0.074600
v -0.411399 1.063595 -0.074600
v -0.391853 1.063425 -0.074600
v -0.333443 1.056185 -0.092027
v -0.333443 1.063157 -0.095208
v -0.395034 1.056453 -0.074600
v -0.333443 1.075866 -0.092021
v -0.333443 1.068895 -0.095202
v -0.395041 1.076134 -0.074600
v -0.391860 1.069163 -0.074600
v -0.333443 1.063327 -0.075662
v -0.333443 1.056300 -0.078843
v -0.333443 1.068725 -0.075662
v -0.333443 1.075752 -0.078843
v -0.390992 1.068725 -0.075662
v -0.390992 1.075752 -0.078843
v -0.390992 1.056300 -0.078843
v -0.390992 1.063327 -0.075662
v -0.390992 1.063157 -0.095208
v -0.390992 1.056185 -0.092027
v -0.390992 1.075866 -0.092021
v -0.390992 1.068895 -0.095202
v -0.344250 1.364500 0.020000
v -0.344250 0.857500 0.020000
v -0.459000 0.858500 0.020000
v -0.459000 1.363500 0.020000
v -0.391860 1.069163 0.020247
v -0.384796 1.085878 0.020000
v -0.395041 1.076207 0.020247
v -0.391853 1.063425 0.020247
v -0.395034 1.056453 0.020247
v -0.384796 1.047723 0.020000
v -0.411399 1.063595 0.020247
v -0.418454 1.048016 0.020000
v -0.408218 1.056568 0.020247
v -0.411399 1.068992 0.020247
v -0.408218 1.075947 0.020247
v -0.418454 1.085426 0.020000
v -0.411399 1.068992 0.065000
v -0.408218 1.075947 0.065000
v -0.391853 1.063425 0.065000
v -0.408218 1.056568 0.065000
v -0.395041 1.076207 0.065000
v -0.411399 1.063595 0.065000
v -0.391860 1.069163 0.065000
v -0.395034 1.056453 0.065000
v -0.333443 1.056185 0.068397
v -0.333443 1.063157 0.065216
v -0.333443 1.075866 0.068404
v -0.333443 1.068895 0.065223
v -0.333443 1.063327 0.084762
v -0.333443 1.056300 0.081581
v -0.333443 1.068725 0.084762
v -0.333443 1.075752 0.081581
v -0.390992 1.068725 0.084762
v -0.390992 1.075752 0.081581
v -0.390992 1.056300 0.081581
v -0.390992 1.063327 0.084762
v -0.390992 1.063157 0.065216
v -0.390992 1.056185 0.068397
v -0.390992 1.075866 0.068404
v -0.390992 1.068895 0.065223
vt 0.375000 0.000000
vt 0.625000 0.000000
vt 0.625000 0.250000
vt 0.375000 0.250000
vt 0.605316 0.250000
vt 0.625000 0.250000
vt 0.625000 0.500000
vt 0.605316 0.500000
vt 0.605316 0.437500
vt 0.605316 0.375000
vt 0.625000 0.750000
vt 0.605316 0.750000
vt 0.375000 0.750000
vt 0.625000 0.750000
vt 0.625000 1.000000
vt 0.375000 1.000000
vt 0.355316 0.500000
vt 0.375000 0.500000
vt 0.375000 0.750000
vt 0.355316 0.750000
vt 0.855316 0.500000
vt 0.875000 0.500000
vt 0.875000 0.750000
vt 0.855316 0.750000
vt 0.855316 0.625000
vt 0.855316 0.562500
vt 0.875000 0.750000
vt 0.855316 0.750000
vt 0.875000 0.500000
vt 0.151619 0.500000
vt 0.125000 0.500000
vt 0.125000 0.500000
vt 0.151619 0.500000
vt 0.605316 0.750000
vt 0.625000 0.750000
vt 0.625000 0.750000
vt 0.605316 0.750000
vt 0.625000 0.750000
vt 0.375000 0.750000
vt 0.375000 0.750000
vt 0.625000 0.750000
vt 0.625000 0.000000
vt 0.375000 0.000000
vt 0.375000 0.000000
vt 0.625000 0.000000
vt 0.651619 0.500000
vt 0.625000 0.500000
vt 0.625000 0.500000
vt 0.651619 0.500000
vt 0.625000 0.750000
vt 0.855316 0.500000
vt 0.401619 0.750000
vt 0.401619 0.750000
vt 0.375000 0.500000
vt 0.355316 0.500000
vt 0.355316 0.500000
vt 0.375000 0.500000
vt 0.651619 0.750000
vt 0.651619 0.750000
vt 0.651619 0.625000
vt 0.753468 0.625000
vt 0.778930 0.625000
vt 0.791661 0.625000
vt 0.804392 0.625000
vt 0.151619 0.500000
vt 0.151619 0.750000
vt 0.401619 0.500000
vt 0.503468 0.500000
vt 0.554392 0.500000
vt 0.401619 0.750000
vt 0.541661 0.437500
vt 0.554392 0.437500
vt 0.375000 0.250000
vt 0.401619 0.250000
vt 0.401619 0.375000
vt 0.401619 0.437500
vt 0.375000 0.500000
vt 0.125000 0.500000
vt 0.125000 0.750000
vt 0.651619 0.562500
vt 0.804392 0.500000
vt 0.753468 0.500000
vt 0.554392 0.375000
vt 0.541661 0.375000
vt 0.528930 0.375000
vt 0.503468 0.375000
vt 0.804392 0.562500
vt 0.791661 0.562500
vt 0.554392 0.390625
vt 0.554392 0.421875
vt 0.541661 0.421875
vt 0.541661 0.406250
vt 0.804392 0.578125
vt 0.804392 0.609375
vt 0.791661 0.609375
vt 0.791661 0.593750
vt 0.753468 0.562500
vt 0.778930 0.562500
vt 0.778930 0.578125
vt 0.778930 0.609375
vt 0.753468 0.593750
vt 0.753468 0.578125
vt 0.528930 0.390625
vt 0.528930 0.421875
vt 0.528930 0.437500
vt 0.503468 0.437500
vt 0.503468 0.421875
vt 0.503468 0.406250
vt 0.775484 0.545399
vt 0.791623 0.545399
vt 0.795744 0.517101
vt 0.765598 0.517101
vt 0.785887 0.545218
vt 0.792280 0.540662
vt 0.781183 0.545218
vt 0.773865 0.540672
vt 0.776526 0.517282
vt 0.767309 0.521828
vt 0.784854 0.517282
vt 0.794997 0.521828
vt 0.545468 0.482182
vt 0.541535 0.455316
vt 0.525438 0.455254
vt 0.515977 0.482244
vt 0.536274 0.456480
vt 0.542093 0.460613
vt 0.530450 0.456480
vt 0.523790 0.460613
vt 0.526048 0.481020
vt 0.518247 0.476887
vt 0.535677 0.481020
vt 0.544320 0.476887
vt 0.809513 0.563750
vt 0.850305 0.563749
vt 0.852181 0.623739
vt 0.807421 0.623687
vt 0.807094 0.609666
vt 0.810164 0.578267
vt 0.557421 0.376312
vt 0.602182 0.376258
vt 0.600309 0.436237
vt 0.559514 0.436193
vt 0.560140 0.421928
vt 0.557102 0.390322
vt 0.411632 0.376481
vt 0.493223 0.377165
vt 0.491971 0.403349
vt 0.498047 0.422428
vt 0.497408 0.436201
vt 0.407886 0.436290
vt 0.657886 0.563710
vt 0.747408 0.563799
vt 0.748047 0.577572
vt 0.741971 0.596651
vt 0.743223 0.622836
vt 0.661632 0.623519
vt 0.529667 0.376452
vt 0.540874 0.377185
vt 0.540709 0.403843
vt 0.541036 0.422411
vt 0.540923 0.436194
vt 0.529716 0.436232
vt 0.529881 0.422097
vt 0.529554 0.390668
vt 0.779716 0.563988
vt 0.790923 0.564760
vt 0.791036 0.591526
vt 0.790709 0.609637
vt 0.790874 0.623680
vt 0.779667 0.623710
vt 0.779554 0.609761
vt 0.779881 0.578656
vt 0.785887 0.545218
vt 0.781183 0.545218
vt 0.781183 0.545218
vt 0.785887 0.545218
vt 0.781183 0.545218
vt 0.785887 0.545218
vt 0.792280 0.540662
vt 0.794997 0.521828
vt 0.773865 0.540672
vt 0.776526 0.517282
vt 0.767309 0.521828
vt 0.784854 0.517282
vt 0.794997 0.521828
vt 0.792280 0.540662
vt 0.794997 0.521828
vt 0.792280 0.540662
vt 0.792280 0.540662
vt 0.792280 0.540662
vt 0.794997 0.521828
vt 0.794997 0.521828
vt 0.773865 0.540672
vt 0.773865 0.540672
vt 0.767309 0.521828
vt 0.776526 0.517282
vt 0.776526 0.517282
vt 0.767309 0.521828
vt 0.784854 0.517282
vt 0.784854 0.517282
vt 0.784854 0.517282
vt 0.794997 0.521828
vt 0.785887 0.545218
vt 0.785887 0.545218
vt 0.784854 0.517282
vt 0.794997 0.521828
vt 0.785887 0.545218
vt 0.781183 0.545218
vt 0.776526 0.517282
vt 0.784854 0.517282
vt 0.781183 0.545218
vt 0.773865 0.540672
vt 0.767309 0.521828
vt 0.776526 0.517282
vt 0.773865 0.540672
vt 0.773865 0.540672
vt 0.767309 0.521828
vt 0.776526 0.517282
vt 0.781183 0.545218
vt 0.773865 0.540672
vt 0.776526 0.517282
vt 0.784854 0.517282
vt 0.785887 0.545218
vt 0.781183 0.545218
vt 0.773865 0.540672
vt 0.767309 0.521828
vt 0.518247 0.476887
vt 0.523790 0.460613
vt 0.536274 0.456480
vt 0.530450 0.456480
vt 0.535677 0.481020
vt 0.544320 0.476887
vt 0.518247 0.476887
vt 0.526048 0.481020
vt 0.523790 0.460613
vt 0.542093 0.460613
vt 0.785887 0.545218
vt 0.781183 0.545218
vt 0.781183 0.545218
vt 0.785887 0.545218
vt 0.792280 0.540662
vt 0.792280 0.540662
vt 0.794997 0.521828
vt 0.794997 0.521828
vt 0.773865 0.540672
vt 0.773865 0.540672
vt 0.767309 0.521828
vt 0.776526 0.517282
vt 0.776526 0.517282
vt 0.767309 0.521828
vt 0.784854 0.517282
vt 0.784854 0.517282
vt 0.781183 0.545218
vt 0.773865 0.540672
vt 0.523790 0.460613
vt 0.530450 0.456480
vt 0.767309 0.521828
vt 0.776526 0.517282
vt 0.526048 0.481020
vt 0.518247 0.476887
vt 0.776526 0.517282
vt 0.784854 0.517282
vt 0.535677 0.481020
vt 0.526048 0.481020
vt 0.784854 0.517282
vt 0.794997 0.521828
vt 0.544320 0.476887
vt 0.535677 0.481020
vt 0.794997 0.521828
vt 0.792280 0.540662
vt 0.542093 0.460613
vt 0.544320 0.476887
vt 0.792280 0.540662
vt 0.785887 0.545218
vt 0.536274 0.456480
vt 0.542093 0.460613
vt 0.785887 0.545218
vt 0.781183 0.545218
vt 0.530450 0.456480
vt 0.536274 0.456480
vn 0.0000 1.0000 0.0000
vn -0.0000 0.0000 1.0000
vn -1.0000 0.0000 0.0000
vn 0.0000 -1.0000 0.0000
vn 1.0000 0.0000 0.0000
vn 0.0000 0.0000 -1.0000
vn -0.0076 -0.0000 -1.0000
vn 0.0000 -0.0011 -1.0000
vn 0.0076 -0.0000 -1.0000
vn 0.0000 0.0016 -1.0000
vn 0.0315 0.0144 -0.9994
vn 0.0325 -0.0148 -0.9994
vn -0.0327 -0.0148 -0.9994
vn -0.0318 0.0144 -0.9994
vn 0.0653 0.0000 -0.9979
vn -0.0653 -0.0000 -0.9979
vn -0.0005 -0.0534 -0.9986
vn -0.0004 0.0482 -0.9988
vn 0.0169 0.0076 0.9998
vn 0.0174 -0.0079 0.9998
vn -0.0175 -0.0079 0.9998
vn -0.0169 0.0078 0.9998
vn 0.0350 0.0000 0.9994
vn -0.0350 0.0000 0.9994
vn -0.0004 0.0258 0.9997
vn -0.0002 -0.0286 0.9996
vn 0.0000 -0.5509 -0.8346
vn 0.0000 0.5509 -0.8346
vn -0.6620 0.0000 0.7495
vn -0.6620 0.0000 -0.7495
vn 0.0000 -0.5509 0.8346
vn 0.0000 0.5509 0.8346
vn 0.6625 0.0000 -0.7491
vn 0.6625 0.0000 0.7491
vn -0.2880 -0.5165 -0.8064
vn -0.2880 -0.5165 0.8064
vn -0.6625 0.0000 0.7491
vn -0.6633 0.0000 -0.7483
vn 0.6611 0.0000 -0.7503
vn 0.6620 0.0000 0.7495
vn 0.2880 0.5165 0.8064
vn 0.2965 0.5151 -0.8043
vn -0.6622 0.0000 0.7493
vn -0.6622 0.0000 -0.7493
vn 0.6622 0.0000 -0.7493
vn 0.6622 0.0000 0.7493
vn 0.2880 0.5166 -0.8064
vn 0.2880 0.5166 0.8064
vn -0.2880 -0.5166 0.8064
vn -0.2880 -0.5166 -0.8064
vn 0.0000 0.0011 -1.0000
vn 1.0000 0.0011 0.0000
vn 0.9098 0.4151 0.0000
vn -0.0087 1.0000 -0.0000
vn 0.9098 -0.4151 0.0000
vn -0.9110 -0.4124 0.0000
vn -0.9110 0.4124 0.0000
vn 0.0125 0.9998 -0.0125
vn -0.0087 -1.0000 0.0000
vn 0.0000 0.4151 -0.9098
vn 0.0000 1.0000 0.0087
vn 0.0000 -0.4151 -0.9098
vn 0.0000 -0.4124 0.9110
vn 0.0000 0.4124 0.9110
vn 0.7215 0.3052 0.6215
vn 0.0000 -1.0000 0.0087
vn -0.6756 0.3059 -0.6708
vn -0.7105 0.0004 -0.7037
vn -0.6801 -0.3059 -0.6663
vn -0.0125 -0.9998 0.0125
vn 0.6919 -0.3058 0.6540
vn 0.7755 0.0005 0.6313
vn -0.0214 -0.9998 -0.0040
vn -0.9094 0.4160 0.0000
vn 0.9098 -0.4150 0.0000
vn -0.0198 0.9998 0.0000
vn 0.9114 0.4115 0.0000
vn 0.5437 -0.3026 -0.7828
vn -0.6638 -0.3048 0.6829
vn -0.6957 0.0000 0.7184
vn -0.6593 0.3062 0.6866
vn -0.0008 0.9996 0.0277
vn 0.5896 0.3037 -0.7484
vn 0.2461 0.0007 -0.9692
usemtl Door
s off
f 1/1/1 5/2/1 7/3/1 3/4/1
f 23/5/2 3/6/2 7/7/2 22/8/2 89/9/2 88/10/2
f 22/8/3 7/7/3 5/11/3 24/12/3
f 6/13/4 2/14/4 4/15/4 8/16/4
f 21/17/5 1/18/5 3/19/5 23/20/5
f 26/21/6 12/22/6 11/23/6 25/24/6 82/25/6 81/26/6
f 25/24/6 11/23/6 19/27/6 29/28/6
f 11/23/6 12/22/6 20/29/6 19/27/6
f 36/30/5 13/31/5 17/32/5 38/33/5
f 28/34/3 16/35/3 20/36/3 30/37/3
f 13/38/4 14/39/4 18/40/4 17/41/4
f 16/42/1 15/43/1 19/44/1 20/45/1
f 35/46/6 10/47/6 18/48/6 39/49/6
f 10/47/6 9/50/6 17/41/6 18/48/6
f 12/22/6 26/21/6 30/51/6 20/29/6
f 37/52/3 28/34/3 30/37/3 39/53/3
f 15/54/5 27/55/5 29/56/5 19/57/5
f 34/58/6 25/24/6 29/28/6 38/59/6
f 84/60/6 87/61/6 108/62/6 107/63/6 98/64/6 82/25/6 25/24/6 34/58/6
f 31/65/5 21/17/5 23/20/5 32/66/5
f 40/67/3 159/68/3 160/69/3 22/8/3 24/12/3 33/70/3
f 160/69/2 157/71/2 100/72/2 89/9/2 22/8/2
f 4/73/2 32/74/2 86/75/2 90/76/2 40/67/2 8/77/2
f 8/77/3 40/67/3 33/70/3 6/13/3
f 2/78/5 31/65/5 32/66/5 4/79/5
f 10/47/6 35/46/6 83/80/6 84/60/6 34/58/6 9/50/6
f 9/50/6 34/58/6 38/59/6 17/41/6
f 14/39/3 37/52/3 39/53/3 18/40/3
f 26/21/6 119/81/6 120/82/6 35/46/6 39/49/6 30/51/6
f 27/55/5 36/30/5 38/33/5 29/56/5
f 32/74/2 23/5/2 88/10/2 97/83/2 105/84/2 106/85/2 85/86/2 86/75/2
f 119/81/6 26/21/6 81/26/6 99/87/6 117/88/6
f 105/84/2 97/83/2 103/89/2 101/90/2 100/72/2 157/71/2 113/91/2 114/92/2
f 117/88/6 99/87/6 104/93/6 102/94/6 98/64/6 107/63/6 115/95/6 116/96/6
f 91/97/6 118/98/6 111/99/6 109/100/6 108/62/6 87/61/6 94/101/6 96/102/6
f 85/86/2 106/85/2 112/103/2 110/104/2 158/105/2 92/106/2 93/107/2 95/108/2
f 35/46/6 120/82/6 118/98/6 91/97/6 83/80/6
f 125/109/7 123/110/7 117/88/7 118/98/7
f 123/110/8 131/111/8 119/81/8 117/88/8
f 131/111/9 129/112/9 120/82/9 119/81/9
f 129/112/10 125/109/10 118/98/10 120/82/10
f 121/113/11 122/114/11 123/110/11
f 124/115/12 125/109/12 126/116/12
f 127/117/13 128/118/13 129/112/13
f 130/119/14 131/111/14 132/120/14
f 123/110/15 125/109/15 124/115/15 121/113/15
f 130/119/16 127/117/16 129/112/16 131/111/16
f 128/118/17 126/116/17 125/109/17 129/112/17
f 131/111/18 123/110/18 122/114/18 132/120/18
f 172/121/2 162/122/2 157/71/2 160/69/2
f 90/76/2 92/106/2 158/105/2 159/68/2 40/67/2
f 162/122/2 166/123/2 158/105/2 157/71/2
f 166/123/2 168/124/2 159/68/2 158/105/2
f 168/124/2 172/121/2 160/69/2 159/68/2
f 161/125/19 162/122/19 163/126/19
f 164/127/20 165/128/20 166/123/20
f 167/129/21 168/124/21 169/130/21
f 170/131/22 171/132/22 172/121/22
f 161/125/23 164/127/23 166/123/23 162/122/23
f 167/129/24 170/131/24 172/121/24 168/124/24
f 162/122/25 172/121/25 171/132/25 163/126/25
f 165/128/26 169/130/26 168/124/26 166/123/26
usemtl Door_Window
f 59/133/6 47/134/6 41/135/6 58/136/6 62/137/6 64/138/6
f 57/139/2 42/140/2 45/141/2 60/142/2 61/143/2 63/144/2
f 43/145/2 49/146/2 53/147/2 55/148/2 52/149/2 46/150/2
f 48/151/6 51/152/6 56/153/6 54/154/6 50/155/6 44/156/6
f 65/157/2 70/158/2 75/159/2 76/160/2 69/161/2 68/162/2 72/163/2 74/164/2
f 67/165/6 78/166/6 79/167/6 80/168/6 77/169/6 66/170/6 71/171/6 73/172/6
usemtl Door_Extra
f 24/12/2 5/11/2 16/35/2 28/34/2
f 31/65/2 2/78/2 13/31/2 36/30/2
f 2/14/2 6/13/2 14/39/2 13/38/2
f 5/2/2 1/1/2 15/43/2 16/42/2
f 1/18/2 21/17/2 27/55/2 15/54/2
f 33/70/2 24/12/2 28/34/2 37/52/2
f 6/13/2 33/70/2 37/52/2 14/39/2
f 21/17/2 31/65/2 36/30/2 27/55/2
f 41/135/27 47/134/27 81/26/27 82/25/27
f 48/151/28 44/156/28 84/60/28 83/80/28
f 49/146/29 43/145/29 86/75/29 85/86/29
f 44/156/30 50/155/30 87/61/30 84/60/30
f 45/141/31 42/140/31 88/10/31 89/9/31
f 43/145/32 46/150/32 90/76/32 86/75/32
f 51/152/33 48/151/33 83/80/33 91/97/33
f 46/150/34 52/149/34 92/106/34 90/76/34
f 52/149/31 55/148/31 93/107/31 92/106/31
f 50/155/27 54/154/27 94/101/27 87/61/27
f 53/147/31 49/146/31 85/86/31 95/108/31
f 54/154/35 56/153/35 96/102/35 94/101/35
f 55/148/36 53/147/36 95/108/36 93/107/36
f 56/153/27 51/152/27 91/97/27 96/102/27
f 42/140/37 57/139/37 97/83/37 88/10/37
f 58/136/38 41/135/38 82/25/38 98/64/38
f 47/134/39 59/133/39 99/87/39 81/26/39
f 60/142/40 45/141/40 89/9/40 100/72/40
f 61/143/32 60/142/32 100/72/32 101/90/32
f 62/137/28 58/136/28 98/64/28 102/94/28
f 63/144/41 61/143/41 101/90/41 103/89/41
f 64/138/42 62/137/42 102/94/42 104/93/42
f 57/139/32 63/144/32 103/89/32 97/83/32
f 59/133/28 64/138/28 104/93/28 99/87/28
f 70/158/43 65/157/43 106/85/43 105/84/43
f 66/170/44 77/169/44 107/63/44 108/62/44
f 78/166/45 67/165/45 118/98/45 117/88/45
f 68/162/46 69/161/46 157/71/46 158/105/46
f 71/171/28 66/170/28 108/62/28 109/100/28
f 72/163/32 68/162/32 158/105/32 110/104/32
f 73/172/47 71/171/47 109/100/47 111/99/47
f 74/164/48 72/163/48 110/104/48 112/103/48
f 67/165/28 73/172/28 111/99/28 118/98/28
f 65/157/32 74/164/32 112/103/32 106/85/32
f 69/161/31 76/160/31 113/91/31 157/71/31
f 75/159/31 70/158/31 105/84/31 114/92/31
f 76/160/49 75/159/49 114/92/49 113/91/49
f 77/169/27 80/168/27 115/95/27 107/63/27
f 79/167/27 78/166/27 117/88/27 116/96/27
f 80/168/50 79/167/50 116/96/50 115/95/50
usemtl Door_Handle
f 142/173/51 139/174/51 153/175/51 156/176/51
f 121/113/52 124/115/52 137/177/52 144/178/52
f 122/114/53 121/113/53 144/178/53 143/179/53
f 132/120/54 122/114/54 143/179/54 134/180/54
f 124/115/55 126/116/55 140/181/55 137/177/55
f 128/118/56 127/117/56 136/182/56 135/183/56
f 127/117/3 130/119/3 133/184/3 136/182/3
f 130/119/57 132/120/57 134/180/57 133/184/57
f 143/185/58 150/186/58 155/187/58 134/188/58
f 126/116/59 128/118/59 135/183/59 140/181/59
f 141/189/60 142/173/60 156/176/60 155/190/60
f 148/191/61 141/189/61 155/190/61 150/192/61
f 139/174/62 138/193/62 154/194/62 153/175/62
f 146/195/63 145/196/63 152/197/63 151/198/63
f 145/196/2 147/199/2 149/200/2 152/197/2
f 147/199/64 148/191/64 150/192/64 149/200/64
f 144/201/65 149/202/65 150/186/65 143/203/65
f 138/193/66 146/195/66 151/198/66 154/194/66
f 147/199/5 145/196/5 146/195/5 138/193/5 139/174/5 142/173/5 141/189/5 148/191/5
f 134/188/67 155/204/67 156/205/67 133/206/67
f 133/207/68 156/208/68 153/209/68 136/210/68
f 136/211/69 153/212/69 154/213/69 135/214/69
f 135/215/70 154/213/70 151/216/70 140/217/70
f 140/217/71 151/218/71 152/219/71 137/220/71
f 137/221/72 152/222/72 149/223/72 144/224/72
f 180/225/73 194/226/73 191/227/73 176/228/73
f 164/127/52 161/125/52 179/229/52 175/230/52
f 171/132/74 170/131/74 173/231/74 174/232/74
f 167/129/56 169/130/56 176/233/56 178/234/56
f 165/128/75 164/127/75 175/230/75 180/235/75
f 163/126/76 171/132/76 174/232/76 177/236/76
f 161/125/77 163/126/77 177/236/77 179/229/77
f 169/130/59 165/128/59 180/235/59 176/233/59
f 170/131/3 167/129/3 178/234/3 173/231/3
f 184/237/51 182/238/51 193/239/51 196/240/51
f 183/241/60 184/237/60 196/240/60 195/242/60
f 188/243/61 183/241/61 195/242/61 190/244/61
f 182/238/62 181/245/62 194/246/62 193/239/62
f 186/247/63 185/248/63 192/249/63 191/250/63
f 185/248/2 187/251/2 189/252/2 192/249/2
f 187/251/64 188/243/64 190/244/64 189/252/64
f 181/245/66 186/247/66 191/250/66 194/246/66
f 187/251/5 185/248/5 186/247/5 181/245/5 182/238/5 184/237/5 183/241/5 188/243/5
f 175/253/78 193/254/78 194/255/78 180/256/78
f 176/257/79 191/258/79 192/259/79 178/260/79
f 178/261/80 192/262/80 189/263/80 173/264/80
f 173/265/81 189/266/81 190/267/81 174/268/81
f 174/269/82 190/270/82 195/271/82 177/272/82
f 177/273/83 195/274/83 196/275/83 179/276/83
f 179/277/84 196/278/84 193/279/84 175/280/84
