# Blender v2.80 (sub 75) OBJ File: 'plate.blend'
# www.blender.org
mtllib plate.mtl
o Plate_Sphere
v 0.000000 0.000387 -0.095459
v -0.000000 0.006800 -0.143078
v 0.000000 -0.007654 -0.124724
v 0.019770 0.000000 -0.047730
v 0.043791 -0.000948 -0.105721
v 0.051662 -0.000000 -0.124724
v 0.047730 -0.007654 -0.115230
v 0.036531 -0.014142 -0.088193
v 0.036531 0.000000 -0.036531
v 0.067500 0.000387 -0.067500
v 0.101171 0.006800 -0.101171
v 0.095459 -0.000000 -0.095459
v 0.088193 -0.007654 -0.088193
v 0.067500 -0.014142 -0.067500
v 0.047730 0.000000 -0.019770
v 0.105721 -0.000948 -0.043791
v 0.124724 -0.000000 -0.051662
v 0.115230 -0.007654 -0.047730
v 0.088193 -0.014142 -0.036531
v 0.051662 0.000000 -0.000000
v 0.095459 0.000387 -0.000000
v 0.143078 0.006800 0.000000
v 0.135000 -0.000000 -0.000000
v 0.124724 -0.007654 -0.000000
v 0.095459 -0.014142 -0.000000
v 0.047730 0.000000 0.019770
v 0.105721 -0.000948 0.043791
v 0.124724 -0.000000 0.051662
v 0.115230 -0.007654 0.047730
v 0.088193 -0.014142 0.036531
v 0.036531 0.000000 0.036531
v 0.067500 0.000387 0.067500
v 0.101171 0.006800 0.101171
v 0.095459 -0.000000 0.095459
v 0.088193 -0.007654 0.088193
v 0.067500 -0.014142 0.067500
v 0.019770 0.000000 0.047730
v 0.043791 -0.000948 0.105721
v 0.051662 -0.000000 0.124724
v 0.047730 -0.007654 0.115230
v 0.036531 -0.014142 0.088193
v -0.000000 0.000000 0.051662
v -0.000000 0.000387 0.095459
v -0.000000 0.006800 0.143078
v -0.000000 -0.000000 0.135000
v -0.000000 -0.007654 0.124724
v -0.000000 -0.014142 0.095459
v -0.019770 0.000000 0.047730
v -0.043791 -0.000948 0.105721
v -0.051662 -0.000000 0.124724
v -0.047730 -0.007654 0.115230
v -0.036531 -0.014142 0.088193
v -0.036531 0.000000 0.036531
v -0.067500 0.000387 0.067500
v -0.101171 0.006800 0.101171
v -0.095459 -0.000000 0.095459
v -0.088193 -0.007654 0.088193
v -0.067500 -0.014142 0.067500
v -0.047730 0.000000 0.019770
v -0.105721 -0.000948 0.043791
v -0.124724 -0.000000 0.051662
v -0.115230 -0.007654 0.047730
v -0.088193 -0.014142 0.036531
v -0.051662 0.000000 -0.000000
v -0.095459 0.000387 -0.000000
v -0.143078 0.006800 -0.000000
v -0.135000 -0.000000 -0.000000
v -0.124724 -0.007654 -0.000000
v -0.095459 -0.014142 -0.000000
v -0.047730 0.000000 -0.019770
v -0.105721 -0.000948 -0.043791
v -0.124724 -0.000000 -0.051662
v -0.115230 -0.007654 -0.047730
v -0.088193 -0.014142 -0.036531
v -0.036531 0.000000 -0.036531
v -0.067500 0.000387 -0.067500
v -0.101171 0.006800 -0.101172
v -0.095459 -0.000000 -0.095459
v -0.088193 -0.007654 -0.088193
v -0.067500 -0.014142 -0.067500
v -0.019770 0.000000 -0.047730
v -0.043791 -0.000948 -0.105721
v -0.051662 -0.000000 -0.124724
v -0.047730 -0.007654 -0.115230
v -0.036531 -0.014142 -0.088193
v 0.000000 0.000000 -0.051662
v 0.000000 -0.000000 -0.135000
v 0.000000 -0.014142 -0.095459
v 0.073575 0.016767 -0.119611
v 0.056444 0.013478 -0.136267
v 0.032552 0.016767 -0.136603
v 0.052578 0.015167 -0.126933
v 0.136603 0.016767 -0.032552
v 0.136267 0.013478 -0.056444
v 0.119611 0.016767 -0.073575
v 0.126933 0.015167 -0.052578
v 0.119611 0.016767 0.073575
v 0.136267 0.013478 0.056444
v 0.136603 0.016767 0.032552
v 0.126933 0.015167 0.052578
v 0.032552 0.016767 0.136603
v 0.056444 0.013478 0.136267
v 0.073575 0.016767 0.119611
v 0.052577 0.015167 0.126933
v -0.073575 0.016767 0.119611
v -0.056444 0.013478 0.136267
v -0.032552 0.016767 0.136603
v -0.052578 0.015167 0.126933
v -0.136603 0.016767 0.032552
v -0.136267 0.013478 0.056443
v -0.119611 0.016767 0.073575
v -0.126933 0.015167 0.052577
v -0.119611 0.016767 -0.073575
v -0.136267 0.013478 -0.056444
v -0.136603 0.016767 -0.032553
v -0.126933 0.015167 -0.052578
v -0.032552 0.016767 -0.136603
v -0.056443 0.013478 -0.136267
v -0.073575 0.016767 -0.119611
v -0.052577 0.015167 -0.126933
vt 0.750000 0.250000
vt 0.750000 0.375000
vt 0.687500 0.375000
vt 0.687500 0.250000
vt 0.750000 0.750000
vt 0.687500 0.750000
vt 0.687500 0.668186
vt 0.712842 0.625000
vt 0.750000 0.875000
vt 0.687500 0.875000
vt 0.625000 0.375000
vt 0.625000 0.250000
vt 0.537158 0.625000
vt 0.562500 0.668186
vt 0.562500 0.750000
vt 0.500000 0.750000
vt 0.625000 0.875000
vt 0.625000 0.750000
vt 0.562500 0.375000
vt 0.562500 0.250000
vt 0.587842 0.625000
vt 0.562500 0.875000
vt 0.500000 0.375000
vt 0.500000 0.250000
vt 0.412158 0.625000
vt 0.437500 0.668186
vt 0.437500 0.750000
vt 0.375000 0.750000
vt 0.500000 0.875000
vt 0.437500 0.375000
vt 0.437500 0.250000
vt 0.462842 0.625000
vt 0.437500 0.875000
vt 0.287158 0.625000
vt 0.312500 0.668186
vt 0.312500 0.750000
vt 0.250000 0.750000
vt 0.375000 0.875000
vt 0.375000 0.375000
vt 0.375000 0.250000
vt 0.312500 0.375000
vt 0.312500 0.250000
vt 0.337842 0.625000
vt 0.312500 0.875000
vt 0.250000 0.375000
vt 0.250000 0.250000
vt 0.162158 0.625000
vt 0.187500 0.668186
vt 0.187500 0.750000
vt 0.125000 0.750000
vt 0.250000 0.875000
vt 0.187500 0.375000
vt 0.187500 0.250000
vt 0.212842 0.625000
vt 0.187500 0.875000
vt 0.125000 0.875000
vt 0.125000 0.375000
vt 0.125000 0.250000
vt 0.037158 0.625000
vt 0.062500 0.668186
vt 0.062500 0.750000
vt 0.000000 0.750000
vt 0.000000 0.625000
vt 0.062500 0.375000
vt 0.062500 0.250000
vt 0.125000 0.625000
vt 0.087842 0.625000
vt 0.062500 0.875000
vt 0.000000 0.375000
vt 0.000000 0.250000
vt 0.912158 0.625000
vt 0.937500 0.668186
vt 0.937500 0.750000
vt 0.875000 0.750000
vt 0.875000 0.625000
vt 0.000000 0.875000
vt 1.000000 0.250000
vt 1.000000 0.375000
vt 0.937500 0.375000
vt 0.937500 0.250000
vt 1.000000 0.625000
vt 1.000000 0.750000
vt 0.962842 0.625000
vt 1.000000 0.875000
vt 0.937500 0.875000
vt 0.875000 0.875000
vt 0.812500 0.875000
vt 0.875000 0.375000
vt 0.875000 0.250000
vt 0.787158 0.625000
vt 0.812500 0.668186
vt 0.812500 0.750000
vt 0.812500 0.250000
vt 0.812500 0.375000
vt 0.837842 0.625000
vt 0.662158 0.625000
vt 0.687500 0.578174
vt 0.562500 0.578174
vt 0.437500 0.578174
vt 0.312500 0.578174
vt 0.187500 0.578174
vt 0.062500 0.578174
vt 0.937500 0.578174
vt 0.812500 0.578174
vt 0.250000 0.625000
vt 0.375000 0.625000
vt 0.500000 0.625000
vt 0.625000 0.625000
vt 0.750000 0.625000
vt 0.687500 0.500000
vt 0.625000 0.500000
vt 0.750000 0.500000
vt 0.562500 0.500000
vt 0.500000 0.500000
vt 0.437500 0.500000
vt 0.375000 0.500000
vt 0.312500 0.500000
vt 0.250000 0.500000
vt 0.187500 0.500000
vt 0.125000 0.500000
vt 0.062500 0.500000
vt 0.000000 0.500000
vt 1.000000 0.500000
vt 0.937500 0.500000
vt 0.875000 0.500000
vt 0.812500 0.500000
vn 0.0430 -0.9754 -0.2163
vn 0.0447 0.8735 0.4848
vn 0.0210 0.9998 -0.0006
vn 0.1225 -0.9754 -0.1833
vn -0.4848 0.8735 -0.0447
vn -0.0144 0.9998 -0.0152
vn 0.1833 -0.9754 -0.1225
vn -0.3112 0.8735 0.3744
vn 0.0152 0.9998 0.0144
vn 0.2163 -0.9754 -0.0430
vn -0.3112 0.8735 -0.3744
vn 0.0006 0.9998 -0.0210
vn 0.2163 -0.9754 0.0430
vn -0.4848 0.8735 0.0447
vn 0.0006 0.9998 0.0210
vn 0.0447 0.8735 -0.4848
vn 0.0152 0.9998 -0.0144
vn 0.1833 -0.9754 0.1225
vn 0.1225 -0.9754 0.1833
vn -0.3744 0.8735 -0.3112
vn -0.0144 0.9998 0.0152
vn 0.0430 -0.9754 0.2163
vn 0.3744 0.8735 -0.3112
vn 0.0210 0.9998 0.0006
vn -0.0430 -0.9754 0.2163
vn -0.0447 0.8735 -0.4848
vn -0.0210 0.9998 0.0006
vn 0.0144 0.9998 0.0152
vn -0.1225 -0.9754 0.1833
vn 0.3452 0.9321 -0.1097
vn -0.1833 -0.9754 0.1225
vn 0.3216 0.9321 -0.1665
vn -0.0152 0.9998 -0.0144
vn -0.2163 -0.9754 0.0430
vn 0.3216 0.9321 0.1665
vn -0.0006 0.9998 0.0210
vn -0.2163 -0.9754 -0.0430
vn 0.3452 0.9321 0.1097
vn -0.0006 0.9998 -0.0210
vn 0.0000 1.0000 0.0000
vn -0.1833 -0.9754 -0.1225
vn -0.0447 0.8735 0.4848
vn -0.0152 0.9998 0.0144
vn 0.0000 -1.0000 0.0000
vn -0.1225 -0.9754 -0.1833
vn 0.3744 0.8735 0.3112
vn 0.0144 0.9998 -0.0152
vn -0.0430 -0.9754 -0.2163
vn -0.0210 0.9998 -0.0006
vn 0.0631 0.9863 -0.1524
vn 0.1524 0.9863 -0.0631
vn 0.1524 0.9863 0.0631
vn 0.0631 0.9863 0.1524
vn -0.0631 0.9863 0.1524
vn -0.1524 0.9863 0.0631
vn -0.1524 0.9863 -0.0631
vn -0.0631 0.9863 -0.1524
vn -0.3744 0.8735 0.3112
vn -0.1320 0.9411 -0.3112
vn 0.3134 0.9411 -0.1267
vn -0.3134 0.9411 -0.1267
vn 0.1320 0.9411 -0.3112
vn -0.3112 0.9411 0.1320
vn -0.1267 0.9411 -0.3134
vn -0.1267 0.9411 0.3134
vn -0.3112 0.9411 -0.1320
vn 0.1320 0.9411 0.3112
vn -0.3134 0.9411 0.1267
vn 0.3134 0.9411 0.1267
vn -0.1320 0.9411 0.3112
vn 0.4729 -0.5513 -0.6874
vn 0.1180 -0.7964 -0.5932
vn 0.3360 -0.7964 -0.5028
vn 0.1516 -0.5513 -0.8204
vn 0.5028 -0.7964 -0.3360
vn 0.8204 -0.5513 -0.1516
vn 0.5932 -0.7964 -0.1180
vn 0.6874 -0.5513 -0.4729
vn 0.5932 -0.7964 0.1180
vn 0.6874 -0.5513 0.4729
vn 0.5028 -0.7964 0.3360
vn 0.8204 -0.5513 0.1516
vn 0.3360 -0.7964 0.5028
vn 0.1516 -0.5513 0.8204
vn 0.4729 -0.5513 0.6874
vn 0.1180 -0.7964 0.5932
vn -0.1180 -0.7964 0.5932
vn -0.4729 -0.5513 0.6874
vn -0.3360 -0.7964 0.5028
vn -0.1516 -0.5513 0.8204
vn -0.5028 -0.7964 0.3360
vn -0.8204 -0.5513 0.1516
vn -0.5932 -0.7964 0.1180
vn -0.6874 -0.5513 0.4729
vn -0.5932 -0.7964 -0.1180
vn -0.6874 -0.5513 -0.4729
vn -0.5028 -0.7964 -0.3360
vn -0.8204 -0.5513 -0.1516
vn -0.3360 -0.7964 -0.5028
vn -0.1516 -0.5513 -0.8204
vn -0.1180 -0.7964 -0.5932
vn -0.4729 -0.5513 -0.6874
usemtl Material.001
s off
f 88/1/1 3/2/1 7/3/1 8/4/1
f 1/5/2 5/6/2 92/7/2 91/8/2
f 1/5/3 86/9/3 4/10/3 5/6/3
f 8/4/4 7/3/4 13/11/4 14/12/4
f 93/13/5 96/14/5 16/15/5 21/16/5
f 5/6/6 4/10/6 9/17/6 10/18/6
f 14/12/7 13/11/7 18/19/7 19/20/7
f 10/18/8 16/15/8 96/14/8 95/21/8
f 10/18/9 9/17/9 15/22/9 16/15/9
f 19/20/10 18/19/10 24/23/10 25/24/10
f 97/25/11 100/26/11 27/27/11 32/28/11
f 16/15/12 15/22/12 20/29/12 21/16/12
f 25/24/13 24/23/13 29/30/13 30/31/13
f 21/16/14 27/27/14 100/26/14 99/32/14
f 21/16/15 20/29/15 26/33/15 27/27/15
f 101/34/16 104/35/16 38/36/16 43/37/16
f 27/27/17 26/33/17 31/38/17 32/28/17
f 30/31/18 29/30/18 35/39/18 36/40/18
f 36/40/19 35/39/19 40/41/19 41/42/19
f 32/28/20 38/36/20 104/35/20 103/43/20
f 32/28/21 31/38/21 37/44/21 38/36/21
f 41/42/22 40/41/22 46/45/22 47/46/22
f 105/47/23 108/48/23 49/49/23 54/50/23
f 38/36/24 37/44/24 42/51/24 43/37/24
f 47/46/25 46/45/25 51/52/25 52/53/25
f 43/37/26 49/49/26 108/48/26 107/54/26
f 43/37/27 42/51/27 48/55/27 49/49/27
f 49/49/28 48/55/28 53/56/28 54/50/28
f 52/53/29 51/52/29 57/57/29 58/58/29
f 109/59/30 112/60/30 60/61/30 65/62/30 66/63/30
f 58/58/31 57/57/31 62/64/31 63/65/31
f 55/66/32 54/50/32 60/61/32 112/60/32 111/67/32
f 54/50/33 53/56/33 59/68/33 60/61/33
f 63/65/34 62/64/34 68/69/34 69/70/34
f 113/71/35 116/72/35 71/73/35 76/74/35 77/75/35
f 60/61/36 59/68/36 64/76/36 65/62/36
f 69/77/37 68/78/37 73/79/37 74/80/37
f 66/81/38 65/82/38 71/73/38 116/72/38 115/83/38
f 65/82/39 64/84/39 70/85/39 71/73/39
f 75/86/40 70/85/40 64/76/40 59/68/40 53/56/40 48/55/40 42/51/40 37/44/40 31/38/40 26/33/40 20/29/40 15/22/40 9/17/40 4/10/40 86/9/40 81/87/40
f 74/80/41 73/79/41 79/88/41 80/89/41
f 117/90/42 120/91/42 82/92/42 1/5/42
f 71/73/43 70/85/43 75/86/43 76/74/43
f 80/89/44 85/93/44 88/1/44 8/4/44 14/12/44 19/20/44 25/24/44 30/31/44 36/40/44 41/42/44 47/46/44 52/53/44 58/58/44 63/65/44 69/77/44 74/80/44
f 80/89/45 79/88/45 84/94/45 85/93/45
f 76/74/46 82/92/46 120/91/46 119/95/46
f 76/74/47 75/86/47 81/87/47 82/92/47
f 85/93/48 84/94/48 3/2/48 88/1/48
f 82/92/49 81/87/49 86/9/49 1/5/49
f 89/96/50 90/97/50 91/8/50 92/7/50
f 93/13/51 94/98/51 95/21/51 96/14/51
f 97/25/52 98/99/52 99/32/52 100/26/52
f 101/34/53 102/100/53 103/43/53 104/35/53
f 105/47/54 106/101/54 107/54/54 108/48/54
f 109/59/55 110/102/55 111/67/55 112/60/55
f 113/71/56 114/103/56 115/83/56 116/72/56
f 117/90/57 118/104/57 119/95/57 120/91/57
f 89/96/58 92/7/58 5/6/58 10/18/58
f 55/66/59 105/47/59 54/50/59
f 44/105/60 43/37/60 107/54/60
f 44/105/61 101/34/61 43/37/61
f 33/106/62 32/28/62 103/43/62
f 33/106/63 97/25/63 32/28/63
f 22/107/64 21/16/64 99/32/64
f 22/107/65 93/13/65 21/16/65
f 11/108/66 10/18/66 95/21/66
f 11/108/67 89/96/67 10/18/67
f 2/109/68 1/5/68 91/8/68
f 2/109/69 117/90/69 1/5/69
f 77/75/70 76/74/70 119/95/70
usemtl Material.002
f 6/110/71 90/97/71 89/96/71 11/108/71 12/111/71
f 3/2/72 87/112/72 6/110/72 7/3/72
f 7/3/73 6/110/73 12/111/73 13/11/73
f 87/112/74 2/109/74 91/8/74 90/97/74 6/110/74
f 13/11/75 12/111/75 17/113/75 18/19/75
f 17/113/76 94/98/76 93/13/76 22/107/76 23/114/76
f 18/19/77 17/113/77 23/114/77 24/23/77
f 12/111/78 11/108/78 95/21/78 94/98/78 17/113/78
f 24/23/79 23/114/79 28/115/79 29/30/79
f 28/115/80 98/99/80 97/25/80 33/106/80 34/116/80
f 29/30/81 28/115/81 34/116/81 35/39/81
f 23/114/82 22/107/82 99/32/82 98/99/82 28/115/82
f 35/39/83 34/116/83 39/117/83 40/41/83
f 39/117/84 102/100/84 101/34/84 44/105/84 45/118/84
f 34/116/85 33/106/85 103/43/85 102/100/85 39/117/85
f 40/41/86 39/117/86 45/118/86 46/45/86
f 46/45/87 45/118/87 50/119/87 51/52/87
f 50/119/88 106/101/88 105/47/88 55/66/88 56/120/88
f 51/52/89 50/119/89 56/120/89 57/57/89
f 45/118/90 44/105/90 107/54/90 106/101/90 50/119/90
f 57/57/91 56/120/91 61/121/91 62/64/91
f 61/121/92 110/102/92 109/59/92 66/63/92 67/122/92
f 62/64/93 61/121/93 67/122/93 68/69/93
f 56/120/94 55/66/94 111/67/94 110/102/94 61/121/94
f 68/78/95 67/123/95 72/124/95 73/79/95
f 72/124/96 114/103/96 113/71/96 77/75/96 78/125/96
f 73/79/97 72/124/97 78/125/97 79/88/97
f 67/123/98 66/81/98 115/83/98 114/103/98 72/124/98
f 79/88/99 78/125/99 83/126/99 84/94/99
f 83/126/100 118/104/100 117/90/100 2/109/100 87/112/100
f 84/94/101 83/126/101 87/112/101 3/2/101
f 78/125/102 77/75/102 119/95/102 118/104/102 83/126/102
