# Blender v2.80 (sub 75) OBJ File: 'table.blend'
# www.blender.org
mtllib table.mtl
o Table_Cube
v 0.750000 0.745008 -0.450000
v 0.750000 0.680008 -0.450000
v 0.750000 0.745008 0.450000
v 0.750000 0.680008 0.450000
v -0.750000 0.745008 -0.450000
v -0.750000 0.680008 -0.450000
v -0.750000 0.745008 0.450000
v -0.750000 0.680008 0.450000
v 0.675000 0.680008 -0.450000
v 0.675000 0.680008 0.450000
v -0.675000 0.680008 -0.450000
v -0.675000 0.680008 0.450000
v 0.750000 0.680008 -0.360000
v 0.675000 0.680008 -0.360000
v 0.675000 0.680008 0.360000
v 0.750000 0.680008 0.360000
v -0.750000 0.680008 -0.360000
v -0.675000 0.680008 -0.360000
v -0.750000 0.680008 0.360000
v -0.675000 0.680008 0.360000
v -0.750000 0.000008 0.360000
v -0.750000 0.000008 0.450000
v -0.675000 0.000008 -0.450000
v -0.750000 0.000008 -0.450000
v 0.675000 0.000008 0.450000
v 0.750000 0.000008 0.450000
v 0.750000 0.000008 -0.360000
v 0.750000 0.000008 -0.450000
v 0.675000 0.000008 -0.450000
v 0.675000 0.000008 0.360000
v -0.675000 0.000008 0.450000
v -0.675000 0.000008 0.360000
v 0.675000 0.000008 -0.360000
v 0.750000 0.000008 0.360000
v -0.750000 0.000008 -0.360000
v -0.675000 0.000008 -0.360000
v 0.750000 0.773298 0.450000
v -0.750000 0.773298 0.450000
v 0.750000 0.773298 -0.450000
v -0.750000 0.773298 -0.450000
v 0.850008 0.743122 0.510005
v -0.850008 0.743122 0.510005
v 0.850008 0.743122 -0.510005
v -0.850008 0.743122 -0.510005
v 0.850008 0.775184 0.510005
v -0.850008 0.775184 0.510005
v 0.850008 0.775184 -0.510005
v -0.850008 0.775184 -0.510005
v 0.675000 0.680008 -0.360000
v -0.675000 0.680008 -0.360000
v 0.675000 0.680008 0.360000
v -0.675000 0.680008 0.360000
v 0.675000 0.723877 -0.360000
v -0.675000 0.723877 -0.360000
v 0.675000 0.723877 0.360000
v -0.675000 0.723877 0.360000
vt 0.375000 0.250000
vt 0.625000 0.250000
vt 0.625000 0.500000
vt 0.375000 0.500000
vt 0.375000 0.437500
vt 0.375000 0.375000
vt 0.625000 0.750000
vt 0.375000 0.750000
vt 0.375000 0.625000
vt 0.375000 0.562500
vt 0.625000 0.500000
vt 0.625000 0.562500
vt 0.625000 0.562500
vt 0.625000 0.500000
vt 0.125000 0.500000
vt 0.375000 0.500000
vt 0.375000 0.750000
vt 0.125000 0.750000
vt 0.125000 0.687500
vt 0.125000 0.625000
vt 0.875000 0.500000
vt 0.875000 0.750000
vt 0.625000 0.750000
vt 0.625000 0.625000
vt 0.437500 0.921875
vt 0.500000 0.921875
vt 0.500000 0.937500
vt 0.500000 1.000000
vt 0.437500 1.000000
vt 0.437500 0.937500
vt 0.625000 0.937500
vt 0.625000 0.937500
vt 0.500000 0.937500
vt 0.375000 0.375000
vt 0.375000 0.250000
vt 0.500000 0.875000
vt 0.625000 0.875000
vt 0.500000 0.906250
vt 0.375000 0.562500
vt 0.375000 0.500000
vt 0.375000 0.875000
vt 0.437500 0.875000
vt 0.437500 0.906250
vt 0.375000 0.937500
vt 0.625000 1.000000
vt 0.500000 1.000000
vt 0.375000 0.937500
vt 0.437500 0.937500
vt 0.437500 1.000000
vt 0.375000 1.000000
vt 0.500000 0.750000
vt 0.625000 0.750000
vt 0.625000 0.875000
vt 0.500000 0.875000
vt 0.375000 0.750000
vt 0.437500 0.750000
vt 0.437500 0.875000
vt 0.375000 0.875000
vt 0.375000 0.437500
vt 0.375000 0.625000
vt 0.437500 0.750000
vt 0.125000 0.625000
vt 0.125000 0.500000
vt 0.500000 0.750000
vt 0.625000 0.625000
vt 0.125000 0.750000
vt 0.125000 0.687500
vt 0.437500 0.921875
vt 0.500000 0.921875
vt 0.500000 0.906250
vt 0.437500 0.906250
vt 0.625000 0.250000
vt 0.625000 0.500000
vt 0.375000 0.000000
vt 0.625000 0.000000
vt 0.625000 0.250000
vt 0.375000 0.250000
vt 0.375000 0.250000
vt 0.375000 0.000000
vt 0.875000 0.500000
vt 0.875000 0.750000
vt 0.625000 0.000000
vt 0.875000 0.500000
vt 0.875000 0.750000
vt 0.625000 0.250000
vt 0.625000 0.500000
vt 0.625000 0.750000
vt 0.625000 0.750000
vt 0.375000 0.750000
vt 0.375000 0.500000
vt 0.375000 0.500000
vt 0.375000 0.750000
vt 0.625000 0.250000
vn 0.0000 0.0000 1.0000
vn -1.0000 0.0000 0.0000
vn 0.0000 0.0000 -1.0000
vn 1.0000 0.0000 0.0000
vn 0.0000 -1.0000 0.0000
vn 0.0000 -0.9995 -0.0314
vn 0.0000 1.0000 0.0000
vn -0.0189 0.9998 0.0000
vn 0.0000 -0.9995 0.0314
vn 0.0000 0.9995 0.0314
vn 0.0189 0.9998 0.0000
vn 0.0189 -0.9998 0.0000
vn 0.0000 0.9995 -0.0314
vn -0.0189 -0.9998 0.0000
usemtl Material
s off
f 4/1/1 3/2/1 7/3/1 8/4/1 12/5/1 10/6/1
f 8/4/2 7/3/2 5/7/2 6/8/2 17/9/2 19/10/2
f 6/11/3 11/12/3 23/13/3 24/14/3
f 2/15/4 1/16/4 3/17/4 4/18/4 16/19/4 13/20/4
f 6/11/3 5/21/3 1/22/3 2/23/3 9/24/3 11/12/3
f 52/25/5 51/26/5 15/27/5 10/28/5 12/29/5 20/30/5
f 15/27/3 16/31/3 34/32/3 30/33/3
f 4/1/1 10/6/1 25/34/1 26/35/1
f 14/36/5 13/37/5 16/31/5 15/27/5 51/26/5 49/38/5
f 8/4/2 19/10/2 21/39/2 22/40/2
f 17/41/5 18/42/5 50/43/5 52/25/5 20/30/5 19/44/5
f 30/33/5 34/32/5 26/45/5 25/46/5
f 21/47/5 32/48/5 31/49/5 22/50/5
f 29/51/5 28/52/5 27/53/5 33/54/5
f 24/55/5 23/56/5 36/57/5 35/58/5
f 12/5/1 8/4/1 22/40/1 31/59/1
f 17/9/2 6/8/2 24/55/2 35/60/2
f 20/30/4 12/29/4 31/49/4 32/48/4
f 11/61/4 18/42/4 36/57/4 23/56/4
f 2/15/4 13/20/4 27/62/4 28/63/4
f 18/42/1 17/41/1 35/58/1 36/57/1
f 14/36/2 9/64/2 29/51/2 33/54/2
f 9/24/3 2/23/3 28/52/3 29/65/3
f 13/37/1 14/36/1 33/54/1 27/53/1
f 10/28/2 15/27/2 30/33/2 25/46/2
f 19/44/3 20/30/3 32/48/3 21/47/3
f 16/19/4 4/18/4 26/66/4 34/67/4
f 11/61/5 9/64/5 14/36/5 49/38/5 50/43/5 18/42/5
f 51/26/3 52/25/3 56/68/3 55/69/3
f 49/38/2 51/26/2 55/69/2 53/70/2
f 52/25/4 50/43/4 54/71/4 56/68/4
f 50/43/1 49/38/1 53/70/1 54/71/1
usemtl Material.001
f 7/3/6 3/2/6 41/72/6 42/73/6
f 39/74/7 40/75/7 38/76/7 37/77/7
f 39/74/8 37/77/8 45/78/8 47/79/8
f 1/22/9 5/21/9 44/80/9 43/81/9
f 40/75/10 39/74/10 47/79/10 48/82/10
f 43/81/3 44/80/3 48/83/3 47/84/3
f 42/73/1 41/72/1 45/85/1 46/86/1
f 44/87/2 42/73/2 46/86/2 48/88/2
f 41/89/4 43/90/4 47/91/4 45/92/4
f 38/76/11 40/75/11 48/82/11 46/93/11
f 5/7/12 7/3/12 42/73/12 44/87/12
f 37/77/13 38/76/13 46/93/13 45/78/13
f 3/17/14 1/16/14 43/90/14 41/89/14
f 54/71/5 53/70/5 55/69/5 56/68/5
